<svg xmlns="http://www.w3.org/2000/svg" xmlns:xlink="http://www.w3.org/1999/xlink" width="1080" zoomAndPan="magnify" viewBox="0 0 810 809.999993" height="1080" preserveAspectRatio="xMidYMid meet" version="1.0"><defs><clipPath id="c118aca50a"><path d="M 44.292969 44.292969 L 765.792969 44.292969 L 765.792969 765.792969 L 44.292969 765.792969 Z M 44.292969 44.292969 " clip-rule="nonzero"/></clipPath></defs><g clip-path="url(#c118aca50a)"><path fill="#b3b3b3" d="M 765.699219 404.996094 C 765.699219 410.902344 765.554688 416.800781 765.265625 422.695312 C 764.976562 428.59375 764.542969 434.476562 763.964844 440.351562 C 763.386719 446.226562 762.664062 452.085938 761.796875 457.921875 C 760.929688 463.761719 759.921875 469.578125 758.769531 475.367188 C 757.617188 481.15625 756.324219 486.914062 754.890625 492.640625 C 753.457031 498.367188 751.882812 504.054688 750.167969 509.703125 C 748.457031 515.351562 746.605469 520.957031 744.617188 526.515625 C 742.625 532.074219 740.503906 537.578125 738.242188 543.03125 C 735.984375 548.484375 733.59375 553.882812 731.070312 559.21875 C 728.546875 564.554688 725.890625 569.824219 723.109375 575.03125 C 720.328125 580.238281 717.417969 585.371094 714.382812 590.4375 C 711.347656 595.5 708.191406 600.484375 704.910156 605.394531 C 701.632812 610.300781 698.234375 615.125 694.714844 619.867188 C 691.199219 624.609375 687.570312 629.261719 683.824219 633.824219 C 680.078125 638.386719 676.226562 642.855469 672.261719 647.230469 C 668.296875 651.605469 664.226562 655.878906 660.054688 660.054688 C 655.878906 664.226562 651.605469 668.296875 647.230469 672.261719 C 642.855469 676.226562 638.386719 680.078125 633.824219 683.824219 C 629.261719 687.570312 624.609375 691.199219 619.867188 694.71875 C 615.125 698.234375 610.300781 701.632812 605.394531 704.910156 C 600.484375 708.191406 595.5 711.347656 590.4375 714.382812 C 585.371094 717.417969 580.238281 720.328125 575.03125 723.109375 C 569.824219 725.890625 564.554688 728.546875 559.21875 731.070312 C 553.882812 733.59375 548.484375 735.984375 543.03125 738.242188 C 537.578125 740.503906 532.074219 742.625 526.515625 744.617188 C 520.957031 746.605469 515.351562 748.457031 509.703125 750.167969 C 504.054688 751.882812 498.367188 753.457031 492.640625 754.890625 C 486.914062 756.324219 481.15625 757.617188 475.367188 758.769531 C 469.578125 759.921875 463.761719 760.929688 457.921875 761.796875 C 452.085938 762.664062 446.226562 763.386719 440.351562 763.964844 C 434.476562 764.542969 428.59375 764.976562 422.695312 765.265625 C 416.800781 765.554688 410.902344 765.699219 404.996094 765.699219 C 399.09375 765.699219 393.195312 765.554688 387.296875 765.265625 C 381.402344 764.976562 375.515625 764.542969 369.640625 763.964844 C 363.765625 763.386719 357.910156 762.664062 352.070312 761.796875 C 346.230469 760.929688 340.417969 759.921875 334.628906 758.769531 C 328.839844 757.617188 323.078125 756.324219 317.355469 754.890625 C 311.628906 753.457031 305.941406 751.882812 300.289062 750.167969 C 294.640625 748.457031 289.039062 746.605469 283.480469 744.617188 C 277.921875 742.625 272.417969 740.503906 266.960938 738.242188 C 261.507812 735.984375 256.113281 733.59375 250.777344 731.070312 C 245.441406 728.546875 240.167969 725.890625 234.964844 723.109375 C 229.757812 720.328125 224.621094 717.417969 219.558594 714.382812 C 214.496094 711.347656 209.511719 708.191406 204.601562 704.910156 C 199.691406 701.632812 194.867188 698.234375 190.125 694.714844 C 185.386719 691.199219 180.734375 687.570312 176.167969 683.824219 C 171.605469 680.078125 167.136719 676.226562 162.765625 672.261719 C 158.390625 668.296875 154.117188 664.226562 149.941406 660.054688 C 145.769531 655.878906 141.699219 651.605469 137.734375 647.230469 C 133.769531 642.855469 129.914062 638.386719 126.171875 633.824219 C 122.425781 629.261719 118.792969 624.609375 115.277344 619.867188 C 111.761719 615.125 108.363281 610.300781 105.082031 605.394531 C 101.804688 600.484375 98.648438 595.5 95.613281 590.4375 C 92.578125 585.371094 89.667969 580.238281 86.886719 575.03125 C 84.101562 569.824219 81.449219 564.554688 78.925781 559.21875 C 76.402344 553.882812 74.011719 548.484375 71.75 543.03125 C 69.492188 537.578125 67.367188 532.074219 65.378906 526.515625 C 63.390625 520.957031 61.539062 515.351562 59.824219 509.703125 C 58.113281 504.054688 56.539062 498.367188 55.105469 492.640625 C 53.667969 486.914062 52.375 481.15625 51.226562 475.367188 C 50.074219 469.578125 49.066406 463.761719 48.199219 457.921875 C 47.332031 452.085938 46.609375 446.226562 46.03125 440.351562 C 45.453125 434.476562 45.019531 428.59375 44.730469 422.695312 C 44.4375 416.800781 44.292969 410.902344 44.292969 404.996094 C 44.292969 399.09375 44.4375 393.195312 44.730469 387.296875 C 45.019531 381.402344 45.453125 375.515625 46.03125 369.640625 C 46.609375 363.765625 47.332031 357.910156 48.199219 352.070312 C 49.066406 346.230469 50.074219 340.417969 51.226562 334.628906 C 52.375 328.839844 53.667969 323.078125 55.105469 317.355469 C 56.539062 311.628906 58.113281 305.941406 59.824219 300.289062 C 61.539062 294.640625 63.390625 289.039062 65.378906 283.480469 C 67.367188 277.921875 69.492188 272.417969 71.75 266.960938 C 74.011719 261.507812 76.402344 256.113281 78.925781 250.777344 C 81.449219 245.441406 84.101562 240.167969 86.886719 234.964844 C 89.667969 229.757812 92.578125 224.621094 95.613281 219.558594 C 98.648438 214.496094 101.804688 209.511719 105.082031 204.601562 C 108.363281 199.691406 111.761719 194.867188 115.277344 190.125 C 118.792969 185.386719 122.425781 180.734375 126.171875 176.167969 C 129.914062 171.605469 133.769531 167.136719 137.734375 162.765625 C 141.699219 158.390625 145.769531 154.117188 149.941406 149.941406 C 154.117188 145.769531 158.390625 141.699219 162.765625 137.734375 C 167.136719 133.769531 171.605469 129.914062 176.167969 126.171875 C 180.734375 122.425781 185.386719 118.792969 190.125 115.277344 C 194.867188 111.761719 199.691406 108.363281 204.601562 105.082031 C 209.511719 101.804688 214.496094 98.648438 219.558594 95.613281 C 224.621094 92.578125 229.757812 89.667969 234.964844 86.886719 C 240.167969 84.101562 245.441406 81.449219 250.777344 78.925781 C 256.113281 76.402344 261.507812 74.011719 266.960938 71.75 C 272.417969 69.492188 277.921875 67.367188 283.480469 65.378906 C 289.039062 63.390625 294.640625 61.539062 300.289062 59.824219 C 305.941406 58.113281 311.628906 56.539062 317.355469 55.105469 C 323.078125 53.667969 328.839844 52.375 334.628906 51.226562 C 340.417969 50.074219 346.230469 49.066406 352.070312 48.199219 C 357.910156 47.332031 363.765625 46.609375 369.640625 46.03125 C 375.515625 45.453125 381.402344 45.019531 387.296875 44.730469 C 393.195312 44.4375 399.09375 44.292969 404.996094 44.292969 C 410.902344 44.292969 416.800781 44.4375 422.695312 44.730469 C 428.59375 45.019531 434.476562 45.453125 440.351562 46.03125 C 446.226562 46.609375 452.085938 47.332031 457.921875 48.199219 C 463.761719 49.066406 469.578125 50.074219 475.367188 51.226562 C 481.15625 52.375 486.914062 53.667969 492.640625 55.105469 C 498.367188 56.539062 504.054688 58.113281 509.703125 59.824219 C 515.351562 61.539062 520.957031 63.390625 526.515625 65.378906 C 532.074219 67.367188 537.578125 69.492188 543.03125 71.75 C 548.484375 74.011719 553.882812 76.402344 559.21875 78.925781 C 564.554688 81.449219 569.824219 84.101562 575.03125 86.886719 C 580.238281 89.667969 585.371094 92.578125 590.4375 95.613281 C 595.5 98.648438 600.484375 101.804688 605.394531 105.082031 C 610.300781 108.363281 615.125 111.761719 619.867188 115.277344 C 624.609375 118.792969 629.261719 122.425781 633.824219 126.171875 C 638.386719 129.914062 642.855469 133.769531 647.230469 137.734375 C 651.605469 141.699219 655.878906 145.769531 660.054688 149.941406 C 664.226562 154.117188 668.296875 158.390625 672.261719 162.765625 C 676.226562 167.136719 680.078125 171.605469 683.824219 176.167969 C 687.570312 180.734375 691.199219 185.386719 694.714844 190.125 C 698.234375 194.867188 701.632812 199.691406 704.910156 204.601562 C 708.191406 209.511719 711.347656 214.496094 714.382812 219.558594 C 717.417969 224.621094 720.328125 229.757812 723.109375 234.964844 C 725.890625 240.167969 728.546875 245.441406 731.070312 250.777344 C 733.59375 256.113281 735.984375 261.507812 738.242188 266.960938 C 740.503906 272.417969 742.625 277.921875 744.617188 283.480469 C 746.605469 289.039062 748.457031 294.640625 750.167969 300.289062 C 751.882812 305.941406 753.457031 311.628906 754.890625 317.355469 C 756.324219 323.078125 757.617188 328.839844 758.769531 334.628906 C 759.921875 340.417969 760.929688 346.230469 761.796875 352.070312 C 762.664062 357.910156 763.386719 363.765625 763.964844 369.640625 C 764.542969 375.515625 764.976562 381.402344 765.265625 387.296875 C 765.554688 393.195312 765.699219 399.09375 765.699219 404.996094 Z M 765.699219 404.996094 " fill-opacity="1" fill-rule="nonzero"/></g><path fill="#b3b3b3" d="M 561.558594 522.550781 L 541.984375 522.550781 C 541.339844 522.550781 540.695312 522.519531 540.054688 522.457031 C 539.410156 522.394531 538.773438 522.296875 538.140625 522.171875 C 537.507812 522.046875 536.882812 521.890625 536.265625 521.703125 C 535.644531 521.515625 535.039062 521.296875 534.441406 521.050781 C 533.847656 520.804688 533.261719 520.527344 532.695312 520.222656 C 532.125 519.917969 531.570312 519.589844 531.035156 519.230469 C 530.5 518.871094 529.980469 518.488281 529.480469 518.078125 C 528.984375 517.667969 528.503906 517.234375 528.046875 516.777344 C 527.589844 516.320312 527.160156 515.84375 526.75 515.34375 C 526.339844 514.847656 525.957031 514.328125 525.597656 513.792969 C 525.238281 513.253906 524.90625 512.703125 524.601562 512.132812 C 524.296875 511.5625 524.023438 510.980469 523.777344 510.382812 C 523.527344 509.789062 523.3125 509.179688 523.125 508.5625 C 522.9375 507.945312 522.78125 507.320312 522.652344 506.6875 C 522.527344 506.054688 522.433594 505.414062 522.371094 504.773438 C 522.308594 504.128906 522.273438 503.484375 522.273438 502.839844 C 522.273438 502.195312 522.308594 501.550781 522.371094 500.910156 C 522.433594 500.265625 522.527344 499.628906 522.652344 498.996094 C 522.78125 498.363281 522.9375 497.738281 523.125 497.117188 C 523.3125 496.5 523.527344 495.894531 523.777344 495.296875 C 524.023438 494.703125 524.296875 494.117188 524.601562 493.550781 C 524.90625 492.980469 525.238281 492.425781 525.597656 491.890625 C 525.957031 491.351562 526.339844 490.835938 526.75 490.335938 C 527.160156 489.835938 527.589844 489.359375 528.046875 488.902344 C 528.503906 488.445312 528.984375 488.015625 529.480469 487.605469 C 529.980469 487.195312 530.5 486.808594 531.035156 486.453125 C 531.570312 486.09375 532.125 485.761719 532.695312 485.457031 C 533.261719 485.152344 533.847656 484.878906 534.441406 484.628906 C 535.039062 484.382812 535.644531 484.167969 536.265625 483.980469 C 536.882812 483.792969 537.507812 483.636719 538.140625 483.507812 C 538.773438 483.382812 539.410156 483.289062 540.054688 483.226562 C 540.695312 483.160156 541.339844 483.128906 541.984375 483.128906 L 561.558594 483.128906 C 562.195312 483.128906 562.828125 483.097656 563.460938 483.035156 C 564.09375 482.972656 564.722656 482.878906 565.347656 482.753906 C 565.96875 482.628906 566.585938 482.476562 567.195312 482.289062 C 567.800781 482.105469 568.402344 481.890625 568.988281 481.648438 C 569.574219 481.402344 570.148438 481.132812 570.710938 480.832031 C 571.269531 480.53125 571.816406 480.207031 572.34375 479.851562 C 572.875 479.5 573.382812 479.121094 573.875 478.71875 C 574.367188 478.316406 574.839844 477.886719 575.289062 477.4375 C 575.738281 476.988281 576.164062 476.519531 576.570312 476.027344 C 576.972656 475.535156 577.351562 475.027344 577.703125 474.5 C 578.058594 473.96875 578.386719 473.425781 578.6875 472.863281 C 578.984375 472.304688 579.257812 471.730469 579.503906 471.144531 C 579.746094 470.554688 579.960938 469.957031 580.148438 469.351562 C 580.332031 468.742188 580.488281 468.125 580.613281 467.503906 C 580.738281 466.878906 580.832031 466.25 580.894531 465.617188 C 580.960938 464.984375 580.992188 464.351562 580.992188 463.714844 L 580.992188 268.007812 C 580.992188 267.371094 580.960938 266.738281 580.898438 266.105469 C 580.835938 265.472656 580.742188 264.84375 580.617188 264.21875 C 580.492188 263.59375 580.335938 262.980469 580.152344 262.371094 C 579.964844 261.761719 579.753906 261.164062 579.507812 260.574219 C 579.265625 259.988281 578.992188 259.414062 578.691406 258.851562 C 578.390625 258.289062 578.066406 257.746094 577.710938 257.214844 C 577.359375 256.6875 576.980469 256.175781 576.574219 255.683594 C 576.171875 255.195312 575.746094 254.722656 575.292969 254.273438 C 574.84375 253.824219 574.375 253.394531 573.882812 252.992188 C 573.390625 252.589844 572.878906 252.210938 572.351562 251.855469 C 571.820312 251.503906 571.277344 251.175781 570.714844 250.875 C 570.15625 250.574219 569.582031 250.304688 568.992188 250.058594 C 568.40625 249.816406 567.804688 249.601562 567.199219 249.414062 C 566.589844 249.230469 565.972656 249.074219 565.347656 248.953125 C 564.722656 248.828125 564.097656 248.734375 563.460938 248.667969 C 562.828125 248.605469 562.195312 248.574219 561.558594 248.574219 L 248.4375 248.574219 C 247.800781 248.574219 247.164062 248.605469 246.53125 248.667969 C 245.898438 248.734375 245.269531 248.828125 244.644531 248.953125 C 244.023438 249.074219 243.40625 249.230469 242.796875 249.414062 C 242.1875 249.601562 241.589844 249.816406 241.003906 250.058594 C 240.414062 250.304688 239.839844 250.574219 239.277344 250.875 C 238.71875 251.175781 238.171875 251.503906 237.644531 251.855469 C 237.113281 252.210938 236.605469 252.589844 236.113281 252.992188 C 235.621094 253.394531 235.148438 253.824219 234.699219 254.273438 C 234.25 254.722656 233.824219 255.195312 233.417969 255.683594 C 233.015625 256.175781 232.636719 256.6875 232.285156 257.214844 C 231.929688 257.746094 231.601562 258.289062 231.300781 258.851562 C 231.003906 259.414062 230.730469 259.988281 230.488281 260.574219 C 230.242188 261.164062 230.027344 261.761719 229.84375 262.371094 C 229.65625 262.980469 229.503906 263.59375 229.378906 264.21875 C 229.253906 264.84375 229.160156 265.472656 229.097656 266.105469 C 229.035156 266.738281 229.003906 267.371094 229 268.007812 L 229 463.714844 C 229.003906 464.351562 229.035156 464.984375 229.097656 465.617188 C 229.164062 466.25 229.257812 466.878906 229.382812 467.503906 C 229.507812 468.125 229.664062 468.742188 229.847656 469.351562 C 230.035156 469.957031 230.25 470.554688 230.492188 471.144531 C 230.734375 471.730469 231.007812 472.304688 231.308594 472.863281 C 231.609375 473.425781 231.9375 473.96875 232.289062 474.5 C 232.644531 475.027344 233.023438 475.535156 233.425781 476.027344 C 233.832031 476.519531 234.257812 476.988281 234.707031 477.4375 C 235.15625 477.886719 235.628906 478.316406 236.121094 478.71875 C 236.609375 479.121094 237.121094 479.5 237.648438 479.851562 C 238.179688 480.207031 238.722656 480.53125 239.285156 480.832031 C 239.84375 481.132812 240.417969 481.402344 241.007812 481.648438 C 241.59375 481.890625 242.191406 482.105469 242.800781 482.289062 C 243.410156 482.476562 244.023438 482.628906 244.648438 482.753906 C 245.273438 482.878906 245.902344 482.972656 246.535156 483.035156 C 247.167969 483.097656 247.800781 483.128906 248.4375 483.128906 L 268.007812 483.128906 C 268.65625 483.128906 269.296875 483.160156 269.941406 483.226562 C 270.582031 483.289062 271.222656 483.382812 271.855469 483.507812 C 272.488281 483.636719 273.113281 483.792969 273.730469 483.980469 C 274.347656 484.167969 274.957031 484.382812 275.550781 484.628906 C 276.148438 484.878906 276.730469 485.152344 277.300781 485.457031 C 277.871094 485.761719 278.421875 486.09375 278.960938 486.453125 C 279.496094 486.8125 280.015625 487.195312 280.511719 487.605469 C 281.011719 488.015625 281.488281 488.445312 281.945312 488.902344 C 282.402344 489.359375 282.835938 489.835938 283.246094 490.335938 C 283.65625 490.835938 284.039062 491.351562 284.398438 491.890625 C 284.757812 492.425781 285.089844 492.980469 285.390625 493.550781 C 285.695312 494.117188 285.972656 494.703125 286.21875 495.296875 C 286.464844 495.894531 286.683594 496.5 286.871094 497.117188 C 287.058594 497.738281 287.214844 498.363281 287.339844 498.996094 C 287.46875 499.628906 287.5625 500.265625 287.625 500.910156 C 287.6875 501.550781 287.71875 502.195312 287.71875 502.839844 C 287.71875 503.484375 287.6875 504.128906 287.625 504.773438 C 287.5625 505.414062 287.46875 506.054688 287.339844 506.6875 C 287.214844 507.320312 287.058594 507.945312 286.871094 508.5625 C 286.683594 509.179688 286.464844 509.789062 286.21875 510.382812 C 285.972656 510.980469 285.695312 511.5625 285.390625 512.132812 C 285.089844 512.703125 284.757812 513.253906 284.398438 513.792969 C 284.039062 514.328125 283.65625 514.847656 283.246094 515.34375 C 282.835938 515.84375 282.402344 516.320312 281.945312 516.777344 C 281.488281 517.234375 281.011719 517.667969 280.511719 518.078125 C 280.015625 518.488281 279.496094 518.871094 278.960938 519.230469 C 278.421875 519.589844 277.871094 519.917969 277.300781 520.222656 C 276.730469 520.527344 276.148438 520.804688 275.550781 521.050781 C 274.957031 521.296875 274.347656 521.515625 273.730469 521.703125 C 273.113281 521.890625 272.488281 522.046875 271.855469 522.171875 C 271.222656 522.296875 270.582031 522.394531 269.941406 522.457031 C 269.296875 522.519531 268.65625 522.550781 268.007812 522.550781 L 248.4375 522.550781 C 246.511719 522.550781 244.589844 522.453125 242.671875 522.261719 C 240.753906 522.070312 238.851562 521.789062 236.960938 521.410156 C 235.070312 521.035156 233.207031 520.566406 231.363281 520.003906 C 229.519531 519.445312 227.707031 518.796875 225.925781 518.058594 C 224.148438 517.320312 222.40625 516.496094 220.710938 515.585938 C 219.011719 514.679688 217.359375 513.6875 215.757812 512.617188 C 214.15625 511.546875 212.609375 510.402344 211.121094 509.179688 C 209.632812 507.957031 208.207031 506.664062 206.84375 505.300781 C 205.480469 503.941406 204.1875 502.515625 202.964844 501.027344 C 201.742188 499.535156 200.597656 497.992188 199.523438 496.390625 C 198.453125 494.789062 197.464844 493.140625 196.554688 491.441406 C 195.644531 489.742188 194.820312 488.003906 194.082031 486.222656 C 193.34375 484.445312 192.695312 482.632812 192.132812 480.789062 C 191.570312 478.945312 191.101562 477.078125 190.726562 475.191406 C 190.347656 473.300781 190.0625 471.398438 189.871094 469.480469 C 189.679688 467.5625 189.582031 465.640625 189.582031 463.714844 L 189.582031 268.007812 C 189.582031 266.082031 189.679688 264.160156 189.871094 262.242188 C 190.0625 260.324219 190.347656 258.421875 190.726562 256.53125 C 191.101562 254.644531 191.570312 252.777344 192.132812 250.933594 C 192.695312 249.089844 193.34375 247.277344 194.082031 245.5 C 194.820312 243.71875 195.644531 241.980469 196.554688 240.28125 C 197.460938 238.582031 198.453125 236.929688 199.523438 235.328125 C 200.59375 233.726562 201.742188 232.183594 202.964844 230.691406 C 204.1875 229.203125 205.480469 227.777344 206.84375 226.414062 C 208.203125 225.050781 209.628906 223.757812 211.121094 222.535156 C 212.609375 221.3125 214.15625 220.167969 215.757812 219.097656 C 217.359375 218.027344 219.007812 217.035156 220.707031 216.125 C 222.40625 215.21875 224.144531 214.394531 225.925781 213.65625 C 227.707031 212.914062 229.515625 212.265625 231.359375 211.707031 C 233.203125 211.144531 235.070312 210.675781 236.960938 210.296875 C 238.847656 209.917969 240.753906 209.636719 242.671875 209.445312 C 244.585938 209.253906 246.507812 209.15625 248.4375 209.152344 L 561.558594 209.152344 C 563.484375 209.15625 565.40625 209.253906 567.324219 209.445312 C 569.242188 209.636719 571.144531 209.917969 573.035156 210.296875 C 574.925781 210.675781 576.789062 211.144531 578.632812 211.707031 C 580.476562 212.265625 582.289062 212.914062 584.070312 213.65625 C 585.847656 214.394531 587.589844 215.21875 589.285156 216.125 C 590.984375 217.035156 592.636719 218.027344 594.238281 219.097656 C 595.839844 220.167969 597.386719 221.316406 598.875 222.539062 C 600.363281 223.757812 601.789062 225.050781 603.152344 226.414062 C 604.515625 227.777344 605.808594 229.203125 607.03125 230.691406 C 608.253906 232.183594 609.398438 233.726562 610.472656 235.328125 C 611.542969 236.929688 612.53125 238.582031 613.441406 240.28125 C 614.351562 241.980469 615.175781 243.71875 615.914062 245.5 C 616.652344 247.277344 617.300781 249.089844 617.863281 250.933594 C 618.421875 252.777344 618.890625 254.644531 619.269531 256.53125 C 619.648438 258.421875 619.933594 260.324219 620.125 262.242188 C 620.316406 264.160156 620.410156 266.082031 620.414062 268.007812 L 620.414062 463.714844 C 620.410156 465.640625 620.316406 467.5625 620.125 469.480469 C 619.933594 471.398438 619.648438 473.300781 619.269531 475.191406 C 618.890625 477.078125 618.421875 478.945312 617.863281 480.789062 C 617.300781 482.632812 616.652344 484.445312 615.914062 486.222656 C 615.175781 488.003906 614.351562 489.742188 613.441406 491.441406 C 612.53125 493.140625 611.542969 494.789062 610.46875 496.390625 C 609.398438 497.992188 608.253906 499.535156 607.03125 501.027344 C 605.804688 502.515625 604.515625 503.941406 603.152344 505.300781 C 601.789062 506.664062 600.363281 507.957031 598.875 509.179688 C 597.382812 510.402344 595.839844 511.546875 594.238281 512.617188 C 592.636719 513.6875 590.984375 514.679688 589.285156 515.585938 C 587.585938 516.496094 585.847656 517.320312 584.066406 518.058594 C 582.289062 518.796875 580.476562 519.445312 578.632812 520.003906 C 576.789062 520.566406 574.921875 521.035156 573.035156 521.410156 C 571.144531 521.789062 569.242188 522.070312 567.324219 522.261719 C 565.40625 522.453125 563.484375 522.550781 561.558594 522.550781 Z M 561.558594 522.550781 " fill-opacity="1" fill-rule="nonzero"/><path fill="#b3b3b3" d="M 502.839844 600.839844 L 307.152344 600.839844 C 306.222656 600.84375 305.292969 600.777344 304.371094 600.644531 C 303.449219 600.515625 302.539062 600.320312 301.644531 600.058594 C 300.75 599.800781 299.878906 599.476562 299.027344 599.09375 C 298.179688 598.710938 297.359375 598.269531 296.574219 597.769531 C 295.789062 597.269531 295.039062 596.714844 294.332031 596.109375 C 293.625 595.503906 292.960938 594.851562 292.34375 594.152344 C 291.730469 593.453125 291.167969 592.714844 290.65625 591.933594 C 290.144531 591.15625 289.691406 590.34375 289.296875 589.5 C 288.898438 588.65625 288.566406 587.789062 288.292969 586.894531 C 288.019531 586.003906 287.8125 585.097656 287.667969 584.179688 C 287.523438 583.257812 287.445312 582.332031 287.433594 581.398438 C 287.421875 580.46875 287.472656 579.539062 287.59375 578.613281 C 287.710938 577.691406 287.894531 576.777344 288.144531 575.878906 C 288.390625 574.980469 288.703125 574.105469 289.074219 573.25 C 289.449219 572.398438 289.878906 571.574219 290.367188 570.78125 C 290.855469 569.988281 291.398438 569.230469 291.996094 568.515625 L 389.859375 451.082031 C 390.320312 450.527344 390.8125 450 391.328125 449.503906 C 391.847656 449.003906 392.390625 448.535156 392.960938 448.09375 C 393.53125 447.65625 394.125 447.246094 394.738281 446.871094 C 395.355469 446.5 395.988281 446.160156 396.640625 445.851562 C 397.292969 445.546875 397.957031 445.277344 398.640625 445.046875 C 399.320312 444.816406 400.015625 444.621094 400.714844 444.464844 C 401.417969 444.308594 402.128906 444.191406 402.84375 444.113281 C 403.558594 444.03125 404.277344 443.992188 404.996094 443.992188 C 405.71875 443.992188 406.433594 444.03125 407.152344 444.113281 C 407.867188 444.191406 408.574219 444.308594 409.277344 444.464844 C 409.980469 444.621094 410.671875 444.816406 411.355469 445.046875 C 412.035156 445.277344 412.703125 445.546875 413.355469 445.851562 C 414.007812 446.160156 414.640625 446.5 415.253906 446.871094 C 415.871094 447.246094 416.460938 447.65625 417.03125 448.09375 C 417.601562 448.535156 418.148438 449.003906 418.664062 449.503906 C 419.183594 450 419.675781 450.527344 420.136719 451.082031 L 517.976562 568.59375 C 518.574219 569.3125 519.117188 570.066406 519.605469 570.859375 C 520.097656 571.652344 520.527344 572.472656 520.898438 573.328125 C 521.273438 574.183594 521.582031 575.058594 521.832031 575.957031 C 522.078125 576.855469 522.261719 577.765625 522.382812 578.6875 C 522.5 579.613281 522.554688 580.539062 522.542969 581.472656 C 522.53125 582.402344 522.453125 583.328125 522.308594 584.25 C 522.164062 585.171875 521.957031 586.074219 521.683594 586.96875 C 521.414062 587.859375 521.078125 588.726562 520.683594 589.570312 C 520.289062 590.414062 519.835938 591.222656 519.324219 592.003906 C 518.816406 592.785156 518.253906 593.523438 517.636719 594.222656 C 517.023438 594.921875 516.363281 595.574219 515.652344 596.179688 C 514.945312 596.785156 514.199219 597.339844 513.414062 597.839844 C 512.628906 598.339844 511.808594 598.78125 510.960938 599.167969 C 510.113281 599.550781 509.242188 599.875 508.347656 600.132812 C 507.453125 600.394531 506.542969 600.589844 505.621094 600.722656 C 504.699219 600.855469 503.773438 600.921875 502.839844 600.921875 Z M 349.234375 561.421875 L 460.757812 561.421875 L 404.996094 494.40625 Z M 349.234375 561.421875 " fill-opacity="1" fill-rule="nonzero"/><path fill="#000000" d="M 503.714844 499.824219 C 511.640625 518.179688 509.476562 537.3125 509.597656 556.207031 C 509.71875 575.046875 509.714844 593.890625 509.585938 612.734375 C 509.480469 626.746094 498.210938 636.085938 485.21875 633.230469 C 476.160156 631.242188 469.792969 623.34375 469.769531 613.585938 C 469.714844 586.960938 469.617188 560.328125 469.890625 533.703125 C 470.027344 520.433594 466.125 508.921875 457.171875 499.167969 C 451.40625 492.890625 449.308594 485.730469 452.394531 477.664062 C 455.386719 469.84375 461.5 466.214844 469.722656 464.683594 C 484.796875 461.878906 500.101562 459.457031 514.640625 454.789062 C 548.230469 444 567.898438 419.984375 575.074219 385.75 C 579.472656 364.761719 581.519531 343.566406 576.148438 322.363281 C 572.683594 308.691406 566.214844 296.5 556.597656 286.214844 C 549.566406 278.691406 547.882812 270.722656 551.363281 260.964844 C 556.550781 246.429688 557.082031 231.5 553.261719 215.542969 C 548.027344 217.328125 542.835938 218.460938 538.246094 220.789062 C 526.632812 226.679688 515.015625 232.667969 503.929688 239.480469 C 496.496094 244.050781 489.410156 245.414062 480.960938 243.226562 C 440.269531 232.683594 399.546875 232.703125 358.792969 243.277344 C 350.535156 245.421875 343.40625 244.371094 336.285156 239.539062 C 322.363281 230.097656 307.71875 221.933594 291.460938 217.097656 C 290.007812 216.664062 288.511719 216.382812 286.6875 215.945312 C 283.667969 227.082031 283.421875 238 285.480469 248.945312 C 286.394531 253.808594 287.859375 258.59375 289.359375 263.324219 C 291.773438 270.941406 290.761719 277.925781 285.34375 283.789062 C 267.605469 302.976562 259.730469 325.621094 260.761719 351.628906 C 261.476562 369.613281 263.65625 387.296875 270.355469 404.15625 C 281.207031 431.476562 301.894531 448.050781 329.277344 456.390625 C 342.136719 460.304688 355.519531 462.675781 368.804688 464.957031 C 382.289062 467.269531 390.265625 475.570312 388.484375 487.800781 C 387.917969 491.707031 385.898438 495.941406 383.28125 498.910156 C 373.824219 509.644531 369.785156 521.863281 370.003906 536.132812 C 370.394531 561.820312 370.195312 587.519531 370.097656 613.210938 C 370.050781 625.003906 361.617188 633.703125 350.484375 633.851562 C 339.28125 634 330.625 625.097656 330.511719 613.097656 C 330.402344 601.910156 330.488281 590.722656 330.488281 580.121094 C 320.316406 580.121094 310.554688 580.648438 300.863281 580.019531 C 277.757812 578.511719 258.515625 568.421875 242.820312 551.671875 C 235.710938 544.078125 229.328125 535.792969 222.695312 527.753906 C 217.21875 521.117188 211.523438 515.230469 202.863281 512.230469 C 193.257812 508.902344 188.863281 497.46875 192.175781 487.8125 C 195.574219 477.894531 205.859375 472.4375 216.058594 475.058594 C 229.234375 478.441406 239.511719 486.269531 248.214844 496.332031 C 254.519531 503.625 260.574219 511.148438 266.53125 518.734375 C 283.203125 539.972656 304.960938 544.382812 329.917969 538.40625 C 330.386719 531.757812 330.449219 525.214844 331.410156 518.800781 C 332.347656 512.539062 334.207031 506.417969 335.695312 500.082031 C 328.59375 497.914062 321.136719 495.90625 313.859375 493.371094 C 260.65625 474.828125 231.769531 436.414062 223.546875 381.53125 C 220.304688 359.902344 219.203125 338.175781 224.191406 316.546875 C 228.164062 299.332031 235.269531 283.574219 245.761719 269.390625 C 247.570312 266.949219 248.214844 264.789062 247.523438 261.742188 C 241.917969 237.039062 243.953125 212.90625 253.367188 189.410156 C 257.277344 179.652344 263.742188 175.730469 274.15625 175.246094 C 298.742188 174.09375 320.207031 183.542969 340.410156 195.667969 C 350.089844 201.480469 358.648438 202.527344 369.449219 200.378906 C 406.34375 193.042969 443.332031 194.109375 480.082031 202.03125 C 484.320312 202.945312 487.582031 202.527344 491.328125 200.226562 C 509.558594 189.050781 528.546875 179.414062 549.933594 176.019531 C 556.460938 174.984375 563.304688 174.980469 569.90625 175.582031 C 577.785156 176.292969 583.226562 181.070312 586.226562 188.480469 C 595.914062 212.394531 598.097656 236.921875 592.550781 262.175781 C 592.125 264.125 592.605469 266.894531 593.761719 268.484375 C 613.210938 295.171875 620.789062 325.109375 618.796875 357.808594 C 617.476562 379.523438 614.132812 400.800781 605.636719 420.988281 C 589.566406 459.164062 560.425781 482.5 521.648438 494.765625 C 515.90625 496.578125 510.058594 498.046875 503.714844 499.824219 Z M 503.714844 499.824219 " fill-opacity="1" fill-rule="nonzero"/></svg>