<svg xmlns="http://www.w3.org/2000/svg" xmlns:xlink="http://www.w3.org/1999/xlink" width="3456" zoomAndPan="magnify" viewBox="0 0 2592 3887.999962" height="5184" preserveAspectRatio="xMidYMid meet" version="1.0"><metadata><ContainsAiGeneratedContent>Yes</ContainsAiGeneratedContent></metadata><defs><clipPath id="0b21d2bc2f"><path d="M 687 708 L 1906 708 L 1906 2680.203125 L 687 2680.203125 Z M 687 708 " clip-rule="nonzero"/></clipPath></defs><g clip-path="url(#0b21d2bc2f)"><path fill="#c92a2a" d="M 1298.164062 2680.203125 C 1253.027344 2458.664062 1173.4375 2274.296875 1077.054688 2103.433594 C 1005.554688 1976.695312 922.730469 1859.710938 846.089844 1736.796875 C 820.507812 1695.769531 798.429688 1652.425781 773.847656 1609.847656 C 724.691406 1524.707031 684.839844 1425.980469 687.371094 1297.9375 C 689.847656 1172.828125 726.039062 1072.464844 778.226562 990.402344 C 864.0625 855.433594 1007.835938 744.78125 1200.746094 715.699219 C 1358.480469 691.921875 1506.367188 732.09375 1611.226562 793.40625 C 1696.917969 843.507812 1763.292969 910.4375 1813.730469 989.308594 C 1866.382812 1071.632812 1902.640625 1168.890625 1905.679688 1295.746094 C 1907.242188 1360.742188 1896.597656 1420.925781 1881.601562 1470.859375 C 1866.429688 1521.390625 1842.027344 1563.632812 1820.3125 1608.75 C 1777.917969 1696.828125 1724.773438 1777.53125 1671.4375 1858.273438 C 1512.570312 2098.800781 1363.464844 2344.085938 1298.167969 2680.199219 Z M 1298.164062 2680.203125 " fill-opacity="1" fill-rule="evenodd"/></g><path fill="#ffffff" d="M 1510.003906 1296.550781 C 1510.003906 1300.046875 1509.921875 1303.535156 1509.75 1307.023438 C 1509.578125 1310.511719 1509.320312 1313.996094 1508.976562 1317.472656 C 1508.636719 1320.949219 1508.207031 1324.414062 1507.695312 1327.867188 C 1507.183594 1331.324219 1506.585938 1334.761719 1505.902344 1338.1875 C 1505.222656 1341.613281 1504.457031 1345.023438 1503.609375 1348.410156 C 1502.757812 1351.796875 1501.828125 1355.164062 1500.8125 1358.503906 C 1499.800781 1361.847656 1498.703125 1365.164062 1497.527344 1368.453125 C 1496.351562 1371.742188 1495.09375 1375 1493.757812 1378.226562 C 1492.421875 1381.453125 1491.003906 1384.644531 1489.511719 1387.800781 C 1488.015625 1390.960938 1486.449219 1394.078125 1484.800781 1397.160156 C 1483.152344 1400.238281 1481.433594 1403.277344 1479.636719 1406.273438 C 1477.839844 1409.269531 1475.972656 1412.21875 1474.03125 1415.125 C 1472.089844 1418.027344 1470.078125 1420.882812 1468 1423.6875 C 1465.917969 1426.492188 1463.769531 1429.246094 1461.550781 1431.945312 C 1459.335938 1434.644531 1457.054688 1437.289062 1454.707031 1439.878906 C 1452.363281 1442.464844 1449.953125 1444.996094 1447.484375 1447.464844 C 1445.015625 1449.933594 1442.484375 1452.34375 1439.894531 1454.6875 C 1437.308594 1457.035156 1434.664062 1459.316406 1431.964844 1461.53125 C 1429.261719 1463.746094 1426.507812 1465.894531 1423.703125 1467.976562 C 1420.898438 1470.054688 1418.042969 1472.066406 1415.136719 1474.007812 C 1412.234375 1475.949219 1409.28125 1477.816406 1406.285156 1479.613281 C 1403.289062 1481.40625 1400.25 1483.128906 1397.167969 1484.773438 C 1394.089844 1486.421875 1390.96875 1487.992188 1387.8125 1489.484375 C 1384.652344 1490.976562 1381.460938 1492.394531 1378.234375 1493.730469 C 1375.003906 1495.066406 1371.746094 1496.324219 1368.457031 1497.5 C 1365.167969 1498.675781 1361.851562 1499.773438 1358.507812 1500.785156 C 1355.167969 1501.800781 1351.800781 1502.730469 1348.410156 1503.578125 C 1345.023438 1504.429688 1341.617188 1505.191406 1338.1875 1505.875 C 1334.761719 1506.554688 1331.320312 1507.152344 1327.867188 1507.664062 C 1324.410156 1508.179688 1320.945312 1508.605469 1317.46875 1508.949219 C 1313.992188 1509.289062 1310.507812 1509.546875 1307.019531 1509.71875 C 1303.53125 1509.890625 1300.039062 1509.976562 1296.542969 1509.976562 C 1293.050781 1509.976562 1289.558594 1509.890625 1286.070312 1509.71875 C 1282.582031 1509.546875 1279.097656 1509.289062 1275.621094 1508.949219 C 1272.144531 1508.605469 1268.679688 1508.179688 1265.222656 1507.664062 C 1261.769531 1507.152344 1258.328125 1506.554688 1254.902344 1505.875 C 1251.472656 1505.191406 1248.066406 1504.429688 1244.679688 1503.578125 C 1241.289062 1502.730469 1237.921875 1501.800781 1234.582031 1500.785156 C 1231.238281 1499.773438 1227.921875 1498.675781 1224.632812 1497.5 C 1221.34375 1496.324219 1218.085938 1495.066406 1214.855469 1493.730469 C 1211.628906 1492.394531 1208.4375 1490.976562 1205.277344 1489.484375 C 1202.121094 1487.992188 1199 1486.421875 1195.921875 1484.773438 C 1192.839844 1483.128906 1189.800781 1481.40625 1186.804688 1479.613281 C 1183.808594 1477.816406 1180.855469 1475.949219 1177.953125 1474.007812 C 1175.046875 1472.066406 1172.191406 1470.054688 1169.386719 1467.976562 C 1166.582031 1465.894531 1163.828125 1463.746094 1161.125 1461.53125 C 1158.425781 1459.316406 1155.78125 1457.035156 1153.191406 1454.6875 C 1150.605469 1452.34375 1148.074219 1449.933594 1145.605469 1447.464844 C 1143.136719 1444.996094 1140.726562 1442.464844 1138.378906 1439.878906 C 1136.035156 1437.289062 1133.753906 1434.644531 1131.539062 1431.945312 C 1129.320312 1429.246094 1127.171875 1426.492188 1125.089844 1423.6875 C 1123.011719 1420.882812 1121 1418.027344 1119.058594 1415.125 C 1117.117188 1412.21875 1115.25 1409.269531 1113.453125 1406.273438 C 1111.65625 1403.277344 1109.9375 1400.238281 1108.289062 1397.160156 C 1106.640625 1394.078125 1105.070312 1390.960938 1103.578125 1387.800781 C 1102.085938 1384.644531 1100.667969 1381.453125 1099.332031 1378.226562 C 1097.996094 1375 1096.738281 1371.742188 1095.5625 1368.453125 C 1094.386719 1365.164062 1093.289062 1361.847656 1092.277344 1358.503906 C 1091.261719 1355.164062 1090.328125 1351.796875 1089.480469 1348.410156 C 1088.632812 1345.023438 1087.867188 1341.613281 1087.183594 1338.1875 C 1086.503906 1334.761719 1085.90625 1331.324219 1085.394531 1327.867188 C 1084.882812 1324.414062 1084.453125 1320.949219 1084.113281 1317.472656 C 1083.769531 1313.996094 1083.511719 1310.511719 1083.339844 1307.023438 C 1083.167969 1303.535156 1083.085938 1300.046875 1083.085938 1296.550781 C 1083.085938 1293.058594 1083.167969 1289.570312 1083.339844 1286.078125 C 1083.511719 1282.589844 1083.769531 1279.109375 1084.113281 1275.632812 C 1084.453125 1272.15625 1084.882812 1268.691406 1085.394531 1265.238281 C 1085.90625 1261.78125 1086.503906 1258.339844 1087.183594 1254.914062 C 1087.867188 1251.488281 1088.632812 1248.082031 1089.480469 1244.695312 C 1090.328125 1241.304688 1091.261719 1237.941406 1092.277344 1234.597656 C 1093.289062 1231.257812 1094.386719 1227.941406 1095.5625 1224.652344 C 1096.738281 1221.363281 1097.996094 1218.105469 1099.332031 1214.878906 C 1100.667969 1211.652344 1102.085938 1208.460938 1103.578125 1205.300781 C 1105.070312 1202.144531 1106.640625 1199.027344 1108.289062 1195.945312 C 1109.9375 1192.863281 1111.65625 1189.828125 1113.453125 1186.832031 C 1115.25 1183.835938 1117.117188 1180.882812 1119.058594 1177.980469 C 1121 1175.074219 1123.011719 1172.222656 1125.089844 1169.414062 C 1127.171875 1166.609375 1129.320312 1163.859375 1131.539062 1161.15625 C 1133.753906 1158.457031 1136.035156 1155.8125 1138.378906 1153.226562 C 1140.726562 1150.636719 1143.136719 1148.109375 1145.605469 1145.640625 C 1148.074219 1143.167969 1150.605469 1140.761719 1153.191406 1138.414062 C 1155.78125 1136.070312 1158.425781 1133.789062 1161.125 1131.574219 C 1163.828125 1129.359375 1166.582031 1127.210938 1169.386719 1125.128906 C 1172.191406 1123.046875 1175.046875 1121.039062 1177.953125 1119.097656 C 1180.855469 1117.15625 1183.808594 1115.289062 1186.804688 1113.492188 C 1189.800781 1111.695312 1192.839844 1109.976562 1195.921875 1108.328125 C 1199 1106.683594 1202.121094 1105.113281 1205.277344 1103.621094 C 1208.4375 1102.125 1211.628906 1100.710938 1214.855469 1099.375 C 1218.085938 1098.039062 1221.34375 1096.78125 1224.632812 1095.605469 C 1227.921875 1094.429688 1231.238281 1093.332031 1234.582031 1092.320312 C 1237.921875 1091.304688 1241.289062 1090.375 1244.679688 1089.523438 C 1248.066406 1088.675781 1251.472656 1087.910156 1254.902344 1087.230469 C 1258.328125 1086.546875 1261.769531 1085.949219 1265.222656 1085.4375 C 1268.679688 1084.925781 1272.144531 1084.5 1275.621094 1084.15625 C 1279.097656 1083.8125 1282.582031 1083.558594 1286.070312 1083.386719 C 1289.558594 1083.214844 1293.050781 1083.128906 1296.542969 1083.128906 C 1300.039062 1083.128906 1303.53125 1083.214844 1307.019531 1083.386719 C 1310.507812 1083.558594 1313.992188 1083.8125 1317.46875 1084.15625 C 1320.945312 1084.5 1324.410156 1084.925781 1327.867188 1085.4375 C 1331.320312 1085.949219 1334.761719 1086.546875 1338.1875 1087.230469 C 1341.617188 1087.910156 1345.023438 1088.675781 1348.410156 1089.523438 C 1351.800781 1090.375 1355.167969 1091.304688 1358.507812 1092.320312 C 1361.851562 1093.332031 1365.167969 1094.429688 1368.457031 1095.605469 C 1371.746094 1096.78125 1375.003906 1098.039062 1378.234375 1099.375 C 1381.460938 1100.710938 1384.652344 1102.125 1387.8125 1103.621094 C 1390.96875 1105.113281 1394.089844 1106.683594 1397.167969 1108.328125 C 1400.25 1109.976562 1403.289062 1111.695312 1406.285156 1113.492188 C 1409.28125 1115.289062 1412.234375 1117.15625 1415.136719 1119.097656 C 1418.042969 1121.039062 1420.898438 1123.046875 1423.703125 1125.128906 C 1426.507812 1127.210938 1429.261719 1129.359375 1431.964844 1131.574219 C 1434.664062 1133.789062 1437.308594 1136.070312 1439.894531 1138.414062 C 1442.484375 1140.761719 1445.015625 1143.167969 1447.484375 1145.640625 C 1449.953125 1148.109375 1452.363281 1150.636719 1454.707031 1153.226562 C 1457.054688 1155.8125 1459.335938 1158.457031 1461.550781 1161.15625 C 1463.769531 1163.859375 1465.917969 1166.609375 1468 1169.414062 C 1470.078125 1172.222656 1472.089844 1175.074219 1474.03125 1177.980469 C 1475.972656 1180.882812 1477.839844 1183.835938 1479.636719 1186.832031 C 1481.433594 1189.828125 1483.152344 1192.863281 1484.800781 1195.945312 C 1486.445312 1199.027344 1488.015625 1202.144531 1489.511719 1205.300781 C 1491.003906 1208.460938 1492.417969 1211.652344 1493.757812 1214.878906 C 1495.09375 1218.105469 1496.351562 1221.363281 1497.527344 1224.652344 C 1498.703125 1227.941406 1499.800781 1231.257812 1500.8125 1234.597656 C 1501.828125 1237.941406 1502.757812 1241.304688 1503.609375 1244.695312 C 1504.457031 1248.082031 1505.222656 1251.488281 1505.902344 1254.914062 C 1506.585938 1258.339844 1507.183594 1261.78125 1507.695312 1265.238281 C 1508.207031 1268.691406 1508.636719 1272.15625 1508.976562 1275.632812 C 1509.320312 1279.109375 1509.578125 1282.589844 1509.75 1286.078125 C 1509.921875 1289.570312 1510.003906 1293.058594 1510.003906 1296.550781 Z M 1510.003906 1296.550781 " fill-opacity="1" fill-rule="nonzero"/></svg>